<?xml version="1.0" standalone="no"?>
<!DOCTYPE svg PUBLIC "-//W3C//DTD SVG 20010904//EN"
 "http://www.w3.org/TR/2001/REC-SVG-20010904/DTD/svg10.dtd">
<svg version="1.0" xmlns="http://www.w3.org/2000/svg"
 width="2000.000000pt" height="2000.000000pt" viewBox="0 0 2000.000000 2000.000000"
 preserveAspectRatio="xMidYMid meet">
<metadata>
Created by potrace 1.14, written by Peter Selinger 2001-2017
</metadata>
<g transform="translate(0.000000,2000.000000) scale(0.100000,-0.100000)"
fill="#000000" stroke="none">
<path d="M8241 13732 c-115 -205 -116 -208 -161 -302 -81 -168 -159 -365 -225
-570 -57 -177 -144 -543 -159 -670 -3 -25 -8 -54 -10 -65 -2 -11 -7 -47 -10
-80 -4 -33 -9 -71 -11 -85 -2 -14 -7 -61 -10 -105 -3 -44 -8 -81 -10 -83 -1
-2 -36 14 -77 35 -140 74 -410 191 -528 229 -25 8 -54 19 -65 24 -64 30 -414
124 -545 146 -14 3 -47 9 -75 14 -79 15 -102 18 -173 26 -37 3 -69 8 -72 9
-13 8 -246 18 -420 19 l-195 1 1 -185 c0 -164 10 -400 19 -470 28 -228 37
-286 60 -404 38 -193 68 -309 130 -510 51 -163 167 -460 226 -578 l39 -78 -42
-1 c-108 -3 -288 -18 -398 -33 -14 -2 -50 -6 -80 -10 -467 -60 -990 -234
-1390 -464 -36 -20 -98 -55 -138 -77 -39 -22 -72 -42 -72 -45 0 -9 140 -252
204 -352 118 -188 284 -409 442 -587 116 -131 345 -352 474 -457 19 -16 37
-31 40 -34 7 -9 196 -150 260 -195 434 -305 936 -543 1438 -681 126 -34 315
-78 382 -89 19 -3 46 -7 60 -10 14 -3 41 -7 60 -10 19 -3 46 -7 60 -10 14 -2
52 -7 85 -10 33 -4 74 -8 90 -10 166 -19 613 -26 765 -11 113 10 185 18 201
21 9 2 40 6 70 10 30 3 61 8 69 10 8 2 40 7 70 10 30 3 63 8 72 11 18 5 48 12
93 19 74 13 351 90 474 131 211 71 384 142 586 240 28 13 52 23 55 22 3 -1 26
11 53 26 l47 28 37 -22 c21 -12 44 -23 53 -25 8 -2 47 -17 85 -35 222 -102
566 -217 760 -256 11 -2 31 -6 45 -10 14 -3 39 -7 55 -10 17 -2 50 -9 75 -14
53 -11 100 -19 155 -26 22 -3 51 -7 65 -8 14 -2 54 -7 90 -10 36 -4 76 -8 90
-11 172 -30 748 -18 1030 20 14 2 50 6 80 10 79 9 142 20 300 49 555 103 1198
351 1685 649 622 381 1147 908 1454 1461 10 17 35 62 55 99 21 37 37 69 35 71
-2 1 -80 46 -174 99 -570 322 -1092 497 -1720 576 -105 14 -189 22 -226 23
-16 1 -29 2 -29 4 0 1 26 56 59 121 32 65 73 152 91 193 18 41 38 89 46 105
94 210 226 666 259 900 2 11 8 49 13 85 26 161 34 285 36 537 2 135 -1 204 -8
206 -29 10 -482 -3 -641 -18 -75 -8 -152 -17 -165 -20 -8 -2 -39 -7 -69 -10
-30 -4 -63 -9 -75 -11 -23 -4 -222 -44 -246 -49 -8 -2 -44 -11 -80 -20 -36 -9
-69 -18 -75 -19 -161 -36 -545 -174 -749 -270 -54 -25 -103 -46 -108 -46 -4 0
-8 12 -7 28 2 39 -10 215 -25 352 -8 71 -8 70 -31 220 -66 420 -238 927 -424
1249 -21 36 -50 86 -63 111 -65 115 -80 140 -89 145 -9 6 -288 -156 -440 -256
-304 -200 -609 -469 -879 -774 -94 -106 -272 -336 -335 -432 -15 -24 -30 -43
-34 -43 -3 0 -37 48 -76 107 -172 262 -336 464 -560 688 -178 178 -302 285
-486 416 -135 97 -466 299 -488 299 -3 0 -53 -85 -110 -188z m409 -572 c354
-272 660 -620 914 -1039 31 -50 56 -94 56 -96 0 -2 13 -25 30 -51 33 -53 37
-35 -48 -214 -124 -259 -231 -569 -305 -880 -35 -146 -36 -154 -62 -313 l-18
-108 -21 23 c-12 13 -64 73 -116 133 -149 173 -416 436 -570 561 -19 16 -37
31 -40 34 -8 9 -65 54 -94 75 -15 11 -40 30 -54 42 -15 13 -66 51 -114 85
l-87 63 4 130 c4 124 11 219 20 295 12 99 16 128 21 165 7 51 12 83 19 115 3
14 8 41 11 60 3 19 15 73 26 120 11 47 22 96 24 110 16 82 104 354 163 504 81
202 120 280 134 269 6 -6 55 -43 107 -83z m2881 -60 c22 -58 45 -114 49 -125
43 -101 129 -430 160 -610 10 -60 13 -87 25 -180 3 -27 7 -63 10 -80 10 -67
18 -250 19 -409 l1 -169 -102 -71 c-378 -264 -706 -567 -967 -894 -33 -40 -61
-70 -64 -68 -2 3 -6 16 -7 30 -2 13 -6 38 -10 55 -3 16 -8 44 -10 61 -3 18 -7
39 -9 49 -3 9 -8 32 -11 51 -18 104 -93 388 -150 565 -9 28 -18 55 -19 60 -2
6 -6 17 -9 25 -4 8 -22 60 -42 115 -20 55 -65 169 -102 254 l-66 154 19 36
c27 52 166 262 244 366 120 162 221 277 394 450 181 180 307 288 477 409 121
87 103 94 170 -74z m-5401 -1335 c14 -2 45 -7 70 -10 41 -6 150 -26 210 -40
14 -3 35 -7 47 -9 140 -27 487 -146 691 -237 186 -83 489 -252 496 -277 3 -9
8 -60 11 -112 3 -52 8 -108 11 -125 3 -16 7 -48 9 -70 10 -110 52 -357 81
-475 59 -244 100 -379 193 -628 25 -69 28 -81 13 -74 -23 12 -342 119 -412
139 -167 45 -249 66 -380 92 -200 41 -261 52 -390 66 -25 3 -56 8 -70 10 -14
3 -56 7 -95 11 -38 3 -74 7 -80 7 -25 4 -175 302 -267 532 -67 168 -157 448
-182 570 -3 11 -12 53 -20 92 -15 71 -19 90 -31 163 -3 19 -10 60 -15 90 -12
73 -20 150 -26 233 l-5 68 58 -6 c32 -4 69 -8 83 -10z m7875 -42 c-3 -32 -8
-69 -10 -83 -2 -14 -7 -45 -10 -70 -3 -25 -13 -76 -20 -115 -8 -38 -16 -81
-19 -95 -28 -151 -141 -499 -223 -682 -64 -144 -262 -520 -286 -545 -5 -4 -68
-12 -152 -18 -44 -3 -96 -7 -115 -10 -19 -2 -57 -7 -85 -10 -63 -8 -266 -41
-325 -54 -272 -58 -521 -131 -722 -212 -53 -21 -99 -39 -103 -39 -3 0 -1 8 4
18 32 60 192 575 190 612 0 3 4 17 9 31 6 14 13 43 16 65 4 21 13 63 21 94 7
30 16 73 20 95 3 22 7 47 10 55 2 8 6 31 9 50 3 19 7 44 10 55 2 11 7 47 11
80 4 32 8 67 10 76 2 10 6 46 10 81 4 35 8 80 10 102 4 38 19 66 36 66 5 0 46
21 91 46 107 59 346 167 462 209 118 43 273 95 294 100 9 3 76 20 147 39 72
19 144 37 160 40 17 3 41 8 55 11 14 2 36 7 50 9 14 3 50 9 80 15 75 14 121
19 215 27 44 4 82 8 84 10 2 2 20 4 39 4 l34 0 -7 -57z m-4027 -488 c88 -258
169 -579 197 -780 4 -22 10 -65 15 -95 19 -114 39 -317 44 -455 4 -88 3 -92
-36 -174 -22 -47 -50 -108 -63 -135 -35 -78 -111 -272 -137 -353 -21 -66 -38
-93 -38 -60 0 32 -214 490 -276 588 -21 34 -22 44 -19 205 2 93 6 194 9 224 8
78 17 151 21 180 2 14 7 45 10 70 15 106 51 287 79 395 2 6 6 24 10 40 30 118
143 452 151 443 1 -2 16 -43 33 -93z m1742 -385 c-5 -17 -9 -33 -9 -35 2 -35
-59 -294 -105 -452 -90 -304 -164 -496 -301 -779 l-83 -171 -83 -58 c-123 -85
-282 -208 -378 -292 -46 -40 -86 -72 -88 -70 -1 2 3 51 11 108 22 157 36 344
40 519 2 73 6 92 31 135 47 83 149 240 157 243 5 2 8 8 8 13 0 14 133 192 239
318 115 138 339 363 469 471 52 44 96 80 98 80 1 0 -1 -14 -6 -30z m-3410
-150 c133 -119 306 -295 423 -430 181 -209 447 -582 453 -633 1 -12 5 -58 8
-102 7 -82 11 -127 21 -205 12 -93 21 -148 43 -267 l19 -102 -81 63 c-91 71
-332 235 -432 293 -59 34 -71 47 -113 118 -177 301 -333 695 -416 1050 -19 79
-65 314 -65 329 0 10 2 9 140 -114z m5740 -1065 c30 -4 89 -10 130 -16 41 -5
93 -11 115 -14 58 -7 239 -41 320 -60 39 -9 78 -19 89 -21 69 -13 345 -102
466 -149 77 -30 284 -120 302 -132 4 -2 -11 -30 -34 -61 -456 -616 -1140
-1102 -1948 -1384 -76 -27 -262 -84 -300 -93 -8 -2 -69 -18 -135 -35 -66 -17
-131 -32 -145 -35 -31 -6 -67 -13 -100 -20 -14 -3 -43 -8 -65 -11 -22 -3 -42
-7 -45 -9 -3 -2 -44 -9 -90 -15 -47 -6 -96 -13 -110 -15 -139 -21 -300 -29
-570 -29 -239 0 -401 9 -555 30 -115 16 -376 68 -416 83 -21 7 -19 9 16 15 49
9 388 120 430 141 17 8 82 35 145 61 429 177 961 518 1348 867 135 122 402
397 502 518 56 68 110 133 119 144 27 33 157 208 172 233 14 23 16 23 159 18
80 -3 170 -8 200 -11z m-1046 -92 c-134 -157 -327 -350 -507 -507 -161 -141
-488 -379 -632 -461 -235 -134 -294 -165 -465 -243 -95 -43 -229 -97 -275
-111 -22 -7 -49 -16 -60 -21 -30 -13 -179 -59 -182 -56 -2 1 25 31 59 67 211
218 471 559 608 796 30 51 46 66 105 101 297 171 633 311 955 398 89 24 399
91 429 93 7 1 -8 -25 -35 -56z m-6719 -36 c68 -105 237 -327 335 -442 92 -106
323 -344 405 -415 114 -99 178 -152 255 -211 47 -35 90 -68 96 -74 11 -9 127
-88 239 -162 131 -86 400 -228 590 -311 210 -91 512 -191 723 -238 67 -15 122
-31 122 -34 0 -4 -19 -11 -42 -17 -24 -6 -88 -23 -143 -38 -115 -31 -94 -26
-255 -58 -134 -27 -184 -35 -270 -43 -30 -2 -64 -7 -76 -9 -31 -7 -283 -19
-389 -18 -94 0 -312 11 -355 17 -14 2 -57 7 -97 11 -78 7 -75 6 -243 36 -218
39 -609 151 -765 219 -22 10 -84 36 -138 59 -340 144 -761 408 -1047 658 -14
12 -36 31 -50 43 -14 12 -63 59 -110 105 -215 210 -357 375 -494 572 l-57 82
38 17 c92 39 282 114 290 114 4 0 58 16 118 35 61 20 119 37 130 39 11 2 38 9
60 15 44 12 270 57 325 65 93 13 199 25 295 32 44 3 81 7 82 8 1 1 89 3 195 4
l193 1 40 -62z m705 -22 c104 -21 192 -41 270 -62 323 -85 491 -142 770 -265
25 -11 105 -49 179 -85 110 -54 138 -72 160 -105 55 -82 207 -286 265 -358 96
-119 129 -155 310 -334 133 -133 163 -167 140 -162 -16 5 -40 10 -54 12 -14 3
-38 9 -55 14 -16 5 -73 21 -125 36 -234 64 -587 210 -795 329 -411 234 -773
532 -1080 890 -100 116 -97 109 -45 100 25 -4 52 -9 60 -10z"/>
<path d="M9408 6485 c-1 -1 -88 -6 -193 -10 -104 -3 -212 -8 -240 -10 -27 -2
-95 -6 -150 -10 -55 -3 -120 -8 -145 -10 -25 -2 -79 -7 -120 -10 -41 -3 -127
-13 -190 -21 -63 -9 -131 -18 -150 -20 -94 -11 -250 -48 -298 -70 -43 -20 -53
-28 -50 -46 7 -45 137 -85 398 -122 138 -19 158 -21 265 -31 266 -24 527 -39
870 -51 321 -10 1159 -4 1470 11 239 12 249 13 475 30 116 9 187 16 255 25 39
5 90 12 115 15 204 26 383 73 400 105 5 10 10 24 10 30 0 27 -150 74 -300 95
-25 3 -52 8 -60 10 -8 2 -33 6 -55 9 -158 20 -208 26 -270 31 -38 3 -95 7
-125 10 -102 9 -213 16 -495 31 -108 6 -1411 15 -1417 9z"/>
</g>
</svg>
